<?xml version="1.0" standalone="no"?>
<!DOCTYPE svg PUBLIC "-//W3C//DTD SVG 1.1//EN"
"http://www.w3.org/Graphics/SVG/1.1/DTD/svg11.dtd">
<svg width="680px" height="1330px" version="1.1"
     xmlns="http://www.w3.org/2000/svg" xmlns:xlink=
     "http://www.w3.org/1999/xlink">
  <style>
    text {
      font-family: "Helvetica Neue";
      fill: #F4EAD5;
    }
  </style>
  <rect x="0" y="0" rx="10" width="680px" height="1330px" fill="#110F13"/>
<g transform="translate(14,10)">
  <text style="font-size:42pt;" font-weight="bold" x="10" y="50">Soothe</text>
  <text style="font-size:12pt;" x="10" y="70">Emacs theme for synesthesiacs</text>
  <text style="font-size:8pt;fill:#666" x="380" y="20">https://github.com/emacsfodder/emacs-soothe-theme</text>
</g>
<g transform="translate(70,-40)"><g transform="translate(20,84),rotate(45)">
  <ellipse cx="70" cy="70" rx="45" ry="45" fill="#0F0D11"/>
  <ellipse cx="70" cy="70" rx="42" ry="42" fill="#B13120"/>
  <text style="font-size:7pt" font-weight="bold" x="52" y="125">RED-1</text>
  <text style="font-size:7pt; fill:#666;" font-weight="bold" x="52" y="134" >#B13120</text>
</g>
<g transform="translate(120,84),rotate(45)">
  <ellipse cx="70" cy="70" rx="45" ry="45" fill="#0F0D11"/>
  <ellipse cx="70" cy="70" rx="42" ry="42" fill="#A23F1E"/>
  <text style="font-size:7pt" font-weight="bold" x="52" y="125">RED-2</text>
  <text style="font-size:7pt; fill:#666;" font-weight="bold" x="52" y="134" >#A23F1E</text>
</g>
<g transform="translate(220,84),rotate(45)">
  <ellipse cx="70" cy="70" rx="45" ry="45" fill="#0F0D11"/>
  <ellipse cx="70" cy="70" rx="42" ry="42" fill="#AA1100"/>
  <text style="font-size:7pt" font-weight="bold" x="52" y="125">RED-3</text>
  <text style="font-size:7pt; fill:#666;" font-weight="bold" x="52" y="134" >#AA1100</text>
</g>
<g transform="translate(320,84),rotate(45)">
  <ellipse cx="70" cy="70" rx="45" ry="45" fill="#0F0D11"/>
  <ellipse cx="70" cy="70" rx="42" ry="42" fill="#660000"/>
  <text style="font-size:7pt" font-weight="bold" x="52" y="125">RED-4</text>
  <text style="font-size:7pt; fill:#666;" font-weight="bold" x="52" y="134" >#660000</text>
</g>
<g transform="translate(420,84),rotate(45)">
  <ellipse cx="70" cy="70" rx="45" ry="45" fill="#0F0D11"/>
  <ellipse cx="70" cy="70" rx="42" ry="42" fill="#8F621D"/>
  <text style="font-size:7pt" font-weight="bold" x="52" y="125">BROWN-1</text>
  <text style="font-size:7pt; fill:#666;" font-weight="bold" x="52" y="134" >#8F621D</text>
</g>
<g transform="translate(520,84),rotate(45)">
  <ellipse cx="70" cy="70" rx="45" ry="45" fill="#0F0D11"/>
  <ellipse cx="70" cy="70" rx="42" ry="42" fill="#D94A05"/>
  <text style="font-size:7pt" font-weight="bold" x="52" y="125">ORANGE-1</text>
  <text style="font-size:7pt; fill:#666;" font-weight="bold" x="52" y="134" >#D94A05</text>
</g>
<g transform="translate(20,218),rotate(45)">
  <ellipse cx="70" cy="70" rx="45" ry="45" fill="#0F0D11"/>
  <ellipse cx="70" cy="70" rx="42" ry="42" fill="#FF5211"/>
  <text style="font-size:7pt" font-weight="bold" x="52" y="125">ORANGE-2</text>
  <text style="font-size:7pt; fill:#666;" font-weight="bold" x="52" y="134" >#FF5211</text>
</g>
<g transform="translate(120,218),rotate(45)">
  <ellipse cx="70" cy="70" rx="45" ry="45" fill="#0F0D11"/>
  <ellipse cx="70" cy="70" rx="42" ry="42" fill="#CEAE3E"/>
  <text style="font-size:7pt" font-weight="bold" x="52" y="125">YELLOW-1</text>
  <text style="font-size:7pt; fill:#666;" font-weight="bold" x="52" y="134" >#CEAE3E</text>
</g>
<g transform="translate(220,218),rotate(45)">
  <ellipse cx="70" cy="70" rx="45" ry="45" fill="#0F0D11"/>
  <ellipse cx="70" cy="70" rx="42" ry="42" fill="#719F34"/>
  <text style="font-size:7pt" font-weight="bold" x="52" y="125">GREEN-1</text>
  <text style="font-size:7pt; fill:#666;" font-weight="bold" x="52" y="134" >#719F34</text>
</g>
<g transform="translate(320,218),rotate(45)">
  <ellipse cx="70" cy="70" rx="45" ry="45" fill="#0F0D11"/>
  <ellipse cx="70" cy="70" rx="42" ry="42" fill="#3E8F75"/>
  <text style="font-size:7pt" font-weight="bold" x="52" y="125">GREEN-2</text>
  <text style="font-size:7pt; fill:#666;" font-weight="bold" x="52" y="134" >#3E8F75</text>
</g>
<g transform="translate(420,218),rotate(45)">
  <ellipse cx="70" cy="70" rx="45" ry="45" fill="#0F0D11"/>
  <ellipse cx="70" cy="70" rx="42" ry="42" fill="#01535F"/>
  <text style="font-size:7pt" font-weight="bold" x="52" y="125">TURQUOISE-1</text>
  <text style="font-size:7pt; fill:#666;" font-weight="bold" x="52" y="134" >#01535F</text>
</g>
<g transform="translate(520,218),rotate(45)">
  <ellipse cx="70" cy="70" rx="45" ry="45" fill="#0F0D11"/>
  <ellipse cx="70" cy="70" rx="42" ry="42" fill="#073E46"/>
  <text style="font-size:7pt" font-weight="bold" x="52" y="125">TURQUOISE-2</text>
  <text style="font-size:7pt; fill:#666;" font-weight="bold" x="52" y="134" >#073E46</text>
</g>
<g transform="translate(20,352),rotate(45)">
  <ellipse cx="70" cy="70" rx="45" ry="45" fill="#0F0D11"/>
  <ellipse cx="70" cy="70" rx="42" ry="42" fill="#7C9FC9"/>
  <text style="font-size:7pt" font-weight="bold" x="52" y="125">BLUE-1</text>
  <text style="font-size:7pt; fill:#666;" font-weight="bold" x="52" y="134" >#7C9FC9</text>
</g>
<g transform="translate(120,352),rotate(45)">
  <ellipse cx="70" cy="70" rx="45" ry="45" fill="#0F0D11"/>
  <ellipse cx="70" cy="70" rx="42" ry="42" fill="#317598"/>
  <text style="font-size:7pt" font-weight="bold" x="52" y="125">BLUE-2</text>
  <text style="font-size:7pt; fill:#666;" font-weight="bold" x="52" y="134" >#317598</text>
</g>
<g transform="translate(220,352),rotate(45)">
  <ellipse cx="70" cy="70" rx="45" ry="45" fill="#0F0D11"/>
  <ellipse cx="70" cy="70" rx="42" ry="42" fill="#009090"/>
  <text style="font-size:7pt" font-weight="bold" x="52" y="125">BLUE-3</text>
  <text style="font-size:7pt; fill:#666;" font-weight="bold" x="52" y="134" >#009090</text>
</g>
<g transform="translate(320,352),rotate(45)">
  <ellipse cx="70" cy="70" rx="45" ry="45" fill="#0F0D11"/>
  <ellipse cx="70" cy="70" rx="42" ry="42" fill="#364E7A"/>
  <text style="font-size:7pt" font-weight="bold" x="52" y="125">BLUE-4</text>
  <text style="font-size:7pt; fill:#666;" font-weight="bold" x="52" y="134" >#364E7A</text>
</g>
<g transform="translate(420,352),rotate(45)">
  <ellipse cx="70" cy="70" rx="45" ry="45" fill="#0F0D11"/>
  <ellipse cx="70" cy="70" rx="42" ry="42" fill="#7868B5"/>
  <text style="font-size:7pt" font-weight="bold" x="52" y="125">PURPLE-1</text>
  <text style="font-size:7pt; fill:#666;" font-weight="bold" x="52" y="134" >#7868B5</text>
</g>
<g transform="translate(520,352),rotate(45)">
  <ellipse cx="70" cy="70" rx="45" ry="45" fill="#0F0D11"/>
  <ellipse cx="70" cy="70" rx="42" ry="42" fill="#E0E4CC"/>
  <text style="font-size:7pt" font-weight="bold" x="52" y="125">FOAM</text>
  <text style="font-size:7pt; fill:#666;" font-weight="bold" x="52" y="134" >#E0E4CC</text>
</g>
<g transform="translate(20,486),rotate(45)">
  <ellipse cx="70" cy="70" rx="45" ry="45" fill="#0F0D11"/>
  <ellipse cx="70" cy="70" rx="42" ry="42" fill="#ECE5CE"/>
  <text style="font-size:7pt" font-weight="bold" x="52" y="125">SNOW</text>
  <text style="font-size:7pt; fill:#666;" font-weight="bold" x="52" y="134" >#ECE5CE</text>
</g>
<g transform="translate(120,486),rotate(45)">
  <ellipse cx="70" cy="70" rx="45" ry="45" fill="#0F0D11"/>
  <ellipse cx="70" cy="70" rx="42" ry="42" fill="#F4EAD5"/>
  <text style="font-size:7pt" font-weight="bold" x="52" y="125">CREM</text>
  <text style="font-size:7pt; fill:#666;" font-weight="bold" x="52" y="134" >#F4EAD5</text>
</g>
<g transform="translate(220,486),rotate(45)">
  <ellipse cx="70" cy="70" rx="45" ry="45" fill="#0F0D11"/>
  <ellipse cx="70" cy="70" rx="42" ry="42" fill="#AAAAAA"/>
  <text style="font-size:7pt" font-weight="bold" x="52" y="125">GRAY-1</text>
  <text style="font-size:7pt; fill:#666;" font-weight="bold" x="52" y="134" >#AAAAAA</text>
</g>
<g transform="translate(320,486),rotate(45)">
  <ellipse cx="70" cy="70" rx="45" ry="45" fill="#0F0D11"/>
  <ellipse cx="70" cy="70" rx="42" ry="42" fill="#828282"/>
  <text style="font-size:7pt" font-weight="bold" x="52" y="125">GRAY-2</text>
  <text style="font-size:7pt; fill:#666;" font-weight="bold" x="52" y="134" >#828282</text>
</g>
<g transform="translate(420,486),rotate(45)">
  <ellipse cx="70" cy="70" rx="45" ry="45" fill="#0F0D11"/>
  <ellipse cx="70" cy="70" rx="42" ry="42" fill="#333333"/>
  <text style="font-size:7pt" font-weight="bold" x="52" y="125">GRAY-3</text>
  <text style="font-size:7pt; fill:#666;" font-weight="bold" x="52" y="134" >#333333</text>
</g>
<g transform="translate(520,486),rotate(45)">
  <ellipse cx="70" cy="70" rx="45" ry="45" fill="#0F0D11"/>
  <ellipse cx="70" cy="70" rx="42" ry="42" fill="#2A2A2A"/>
  <text style="font-size:7pt" font-weight="bold" x="52" y="125">GRAY-4</text>
  <text style="font-size:7pt; fill:#666;" font-weight="bold" x="52" y="134" >#2A2A2A</text>
</g>
<g transform="translate(20,620),rotate(45)">
  <ellipse cx="70" cy="70" rx="45" ry="45" fill="#0F0D11"/>
  <ellipse cx="70" cy="70" rx="42" ry="42" fill="#252525"/>
  <text style="font-size:7pt" font-weight="bold" x="52" y="125">GRAY-5</text>
  <text style="font-size:7pt; fill:#666;" font-weight="bold" x="52" y="134" >#252525</text>
</g>
<g transform="translate(120,620),rotate(45)">
  <ellipse cx="70" cy="70" rx="45" ry="45" fill="#0F0D11"/>
  <ellipse cx="70" cy="70" rx="42" ry="42" fill="#202020"/>
  <text style="font-size:7pt" font-weight="bold" x="52" y="125">GRAY-6</text>
  <text style="font-size:7pt; fill:#666;" font-weight="bold" x="52" y="134" >#202020</text>
</g>
<g transform="translate(220,620),rotate(45)">
  <ellipse cx="70" cy="70" rx="45" ry="45" fill="#0F0D11"/>
  <ellipse cx="70" cy="70" rx="42" ry="42" fill="#0A0A0A"/>
  <text style="font-size:7pt" font-weight="bold" x="52" y="125">GRAY-1BG</text>
  <text style="font-size:7pt; fill:#666;" font-weight="bold" x="52" y="134" >#0A0A0A</text>
</g>
<g transform="translate(320,620),rotate(45)">
  <ellipse cx="70" cy="70" rx="45" ry="45" fill="#0F0D11"/>
  <ellipse cx="70" cy="70" rx="42" ry="42" fill="#111111"/>
  <text style="font-size:7pt" font-weight="bold" x="52" y="125">GRAY-2BG</text>
  <text style="font-size:7pt; fill:#666;" font-weight="bold" x="52" y="134" >#111111</text>
</g>
<g transform="translate(420,620),rotate(45)">
  <ellipse cx="70" cy="70" rx="45" ry="45" fill="#0F0D11"/>
  <ellipse cx="70" cy="70" rx="42" ry="42" fill="#141414"/>
  <text style="font-size:7pt" font-weight="bold" x="52" y="125">GRAY-3BG</text>
  <text style="font-size:7pt; fill:#666;" font-weight="bold" x="52" y="134" >#141414</text>
</g>
<g transform="translate(520,620),rotate(45)">
  <ellipse cx="70" cy="70" rx="45" ry="45" fill="#0F0D11"/>
  <ellipse cx="70" cy="70" rx="42" ry="42" fill="#171717"/>
  <text style="font-size:7pt" font-weight="bold" x="52" y="125">GRAY-4BG</text>
  <text style="font-size:7pt; fill:#666;" font-weight="bold" x="52" y="134" >#171717</text>
</g>
<g transform="translate(20,754),rotate(45)">
  <ellipse cx="70" cy="70" rx="45" ry="45" fill="#0F0D11"/>
  <ellipse cx="70" cy="70" rx="42" ry="42" fill="#1A1A1A"/>
  <text style="font-size:7pt" font-weight="bold" x="52" y="125">GRAY-5BG</text>
  <text style="font-size:7pt; fill:#666;" font-weight="bold" x="52" y="134" >#1A1A1A</text>
</g>
<g transform="translate(120,754),rotate(45)">
  <ellipse cx="70" cy="70" rx="45" ry="45" fill="#0F0D11"/>
  <ellipse cx="70" cy="70" rx="42" ry="42" fill="#1E1E1E"/>
  <text style="font-size:7pt" font-weight="bold" x="52" y="125">GRAY-6BG</text>
  <text style="font-size:7pt; fill:#666;" font-weight="bold" x="52" y="134" >#1E1E1E</text>
</g>
<g transform="translate(220,754),rotate(45)">
  <ellipse cx="70" cy="70" rx="45" ry="45" fill="#0F0D11"/>
  <ellipse cx="70" cy="70" rx="42" ry="42" fill="#1D1515"/>
  <text style="font-size:7pt" font-weight="bold" x="52" y="125">RED-1BG</text>
  <text style="font-size:7pt; fill:#666;" font-weight="bold" x="52" y="134" >#1D1515</text>
</g>
<g transform="translate(320,754),rotate(45)">
  <ellipse cx="70" cy="70" rx="45" ry="45" fill="#0F0D11"/>
  <ellipse cx="70" cy="70" rx="42" ry="42" fill="#251C1E"/>
  <text style="font-size:7pt" font-weight="bold" x="52" y="125">RED-2BG</text>
  <text style="font-size:7pt; fill:#666;" font-weight="bold" x="52" y="134" >#251C1E</text>
</g>
<g transform="translate(420,754),rotate(45)">
  <ellipse cx="70" cy="70" rx="45" ry="45" fill="#0F0D11"/>
  <ellipse cx="70" cy="70" rx="42" ry="42" fill="#2A1F1F"/>
  <text style="font-size:7pt" font-weight="bold" x="52" y="125">BROWN-1BG</text>
  <text style="font-size:7pt; fill:#666;" font-weight="bold" x="52" y="134" >#2A1F1F</text>
</g>
<g transform="translate(520,754),rotate(45)">
  <ellipse cx="70" cy="70" rx="45" ry="45" fill="#0F0D11"/>
  <ellipse cx="70" cy="70" rx="42" ry="42" fill="#1F1710"/>
  <text style="font-size:7pt" font-weight="bold" x="52" y="125">ORANGE-1BG</text>
  <text style="font-size:7pt; fill:#666;" font-weight="bold" x="52" y="134" >#1F1710</text>
</g>
<g transform="translate(20,888),rotate(45)">
  <ellipse cx="70" cy="70" rx="45" ry="45" fill="#0F0D11"/>
  <ellipse cx="70" cy="70" rx="42" ry="42" fill="#18140C"/>
  <text style="font-size:7pt" font-weight="bold" x="52" y="125">YELLOW-1BG</text>
  <text style="font-size:7pt; fill:#666;" font-weight="bold" x="52" y="134" >#18140C</text>
</g>
<g transform="translate(120,888),rotate(45)">
  <ellipse cx="70" cy="70" rx="45" ry="45" fill="#0F0D11"/>
  <ellipse cx="70" cy="70" rx="42" ry="42" fill="#1A2321"/>
  <text style="font-size:7pt" font-weight="bold" x="52" y="125">GREEN-1BG</text>
  <text style="font-size:7pt; fill:#666;" font-weight="bold" x="52" y="134" >#1A2321</text>
</g>
<g transform="translate(220,888),rotate(45)">
  <ellipse cx="70" cy="70" rx="45" ry="45" fill="#0F0D11"/>
  <ellipse cx="70" cy="70" rx="42" ry="42" fill="#1A2321"/>
  <text style="font-size:7pt" font-weight="bold" x="52" y="125">GREEN-2BG</text>
  <text style="font-size:7pt; fill:#666;" font-weight="bold" x="52" y="134" >#1A2321</text>
</g>
<g transform="translate(320,888),rotate(45)">
  <ellipse cx="70" cy="70" rx="45" ry="45" fill="#0F0D11"/>
  <ellipse cx="70" cy="70" rx="42" ry="42" fill="#04181C"/>
  <text style="font-size:7pt" font-weight="bold" x="52" y="125">TURQUOISE-1BG</text>
  <text style="font-size:7pt; fill:#666;" font-weight="bold" x="52" y="134" >#04181C</text>
</g>
<g transform="translate(420,888),rotate(45)">
  <ellipse cx="70" cy="70" rx="45" ry="45" fill="#0F0D11"/>
  <ellipse cx="70" cy="70" rx="42" ry="42" fill="#031316"/>
  <text style="font-size:7pt" font-weight="bold" x="52" y="125">TURQUOISE-2BG</text>
  <text style="font-size:7pt; fill:#666;" font-weight="bold" x="52" y="134" >#031316</text>
</g>
<g transform="translate(520,888),rotate(45)">
  <ellipse cx="70" cy="70" rx="45" ry="45" fill="#0F0D11"/>
  <ellipse cx="70" cy="70" rx="42" ry="42" fill="#1E252F"/>
  <text style="font-size:7pt" font-weight="bold" x="52" y="125">BLUE-1BG</text>
  <text style="font-size:7pt; fill:#666;" font-weight="bold" x="52" y="134" >#1E252F</text>
</g>
<g transform="translate(20,1022),rotate(45)">
  <ellipse cx="70" cy="70" rx="45" ry="45" fill="#0F0D11"/>
  <ellipse cx="70" cy="70" rx="42" ry="42" fill="#1B333E"/>
  <text style="font-size:7pt" font-weight="bold" x="52" y="125">BLUE-2BG</text>
  <text style="font-size:7pt; fill:#666;" font-weight="bold" x="52" y="134" >#1B333E</text>
</g>
<g transform="translate(120,1022),rotate(45)">
  <ellipse cx="70" cy="70" rx="45" ry="45" fill="#0F0D11"/>
  <ellipse cx="70" cy="70" rx="42" ry="42" fill="#132228"/>
  <text style="font-size:7pt" font-weight="bold" x="52" y="125">BLUE-3BG</text>
  <text style="font-size:7pt; fill:#666;" font-weight="bold" x="52" y="134" >#132228</text>
</g>
<g transform="translate(220,1022),rotate(45)">
  <ellipse cx="70" cy="70" rx="45" ry="45" fill="#0F0D11"/>
  <ellipse cx="70" cy="70" rx="42" ry="42" fill="#172028"/>
  <text style="font-size:7pt" font-weight="bold" x="52" y="125">BLUE-4BG</text>
  <text style="font-size:7pt; fill:#666;" font-weight="bold" x="52" y="134" >#172028</text>
</g>
<g transform="translate(320,1022),rotate(45)">
  <ellipse cx="70" cy="70" rx="45" ry="45" fill="#0F0D11"/>
  <ellipse cx="70" cy="70" rx="42" ry="42" fill="#1D1B25"/>
  <text style="font-size:7pt" font-weight="bold" x="52" y="125">PURPLE-1BG</text>
  <text style="font-size:7pt; fill:#666;" font-weight="bold" x="52" y="134" >#1D1B25</text>
</g>
<g transform="translate(420,1022),rotate(45)">
  <ellipse cx="70" cy="70" rx="45" ry="45" fill="#0F0D11"/>
  <ellipse cx="70" cy="70" rx="42" ry="42" fill="#110F13"/>
  <text style="font-size:7pt" font-weight="bold" x="52" y="125">BACKGROUND</text>
  <text style="font-size:7pt; fill:#666;" font-weight="bold" x="52" y="134" >#110F13</text>
</g>
<g transform="translate(520,1022),rotate(45)">
  <ellipse cx="70" cy="70" rx="45" ry="45" fill="#0F0D11"/>
  <ellipse cx="70" cy="70" rx="42" ry="42" fill="#0F0D11"/>
  <text style="font-size:7pt" font-weight="bold" x="52" y="125">BACKGROUND-DARK</text>
  <text style="font-size:7pt; fill:#666;" font-weight="bold" x="52" y="134" >#0F0D11</text>
</g>
<g transform="translate(20,1156),rotate(45)">
  <ellipse cx="70" cy="70" rx="45" ry="45" fill="#0F0D11"/>
  <ellipse cx="70" cy="70" rx="42" ry="42" fill="#111013"/>
  <text style="font-size:7pt" font-weight="bold" x="52" y="125">ALT-BACKGROUND</text>
  <text style="font-size:7pt; fill:#666;" font-weight="bold" x="52" y="134" >#111013</text>
</g>
</g></svg>
